<?xml version="1.0" encoding="UTF-8"?>
<svg xmlns="http://www.w3.org/2000/svg" xmlns:xlink="http://www.w3.org/1999/xlink" width="15px" height="16px" viewBox="0 0 15 15" version="1.1">
<g id="surface1">
<path style=" stroke:none;fill-rule:nonzero;fill:rgb(0%,0%,0%);fill-opacity:1;" d="M 15 7.5 C 15 11.515625 11.644531 14.765625 7.5 14.765625 C 6.726562 14.765625 5.980469 14.652344 5.28125 14.441406 C 5.585938 13.957031 6.042969 13.164062 6.210938 12.535156 C 6.300781 12.195312 6.675781 10.808594 6.675781 10.808594 C 6.921875 11.257812 7.636719 11.640625 8.394531 11.640625 C 10.65625 11.640625 12.289062 9.625 12.289062 7.121094 C 12.289062 4.722656 10.265625 2.925781 7.664062 2.925781 C 4.425781 2.925781 2.707031 5.03125 2.707031 7.324219 C 2.707031 8.390625 3.292969 9.71875 4.226562 10.140625 C 4.371094 10.203125 4.445312 10.175781 4.480469 10.042969 C 4.503906 9.945312 4.628906 9.449219 4.6875 9.21875 C 4.707031 9.144531 4.695312 9.082031 4.636719 9.011719 C 4.332031 8.644531 4.082031 7.976562 4.082031 7.351562 C 4.082031 5.75 5.335938 4.199219 7.46875 4.199219 C 9.3125 4.199219 10.601562 5.417969 10.601562 7.15625 C 10.601562 9.121094 9.578125 10.484375 8.242188 10.484375 C 7.507812 10.484375 6.957031 9.894531 7.132812 9.171875 C 7.347656 8.308594 7.753906 7.375 7.753906 6.753906 C 7.753906 6.195312 7.445312 5.730469 6.804688 5.730469 C 6.050781 5.730469 5.445312 6.484375 5.445312 7.492188 C 5.445312 8.136719 5.671875 8.570312 5.671875 8.570312 C 5.671875 8.570312 4.929688 11.613281 4.792969 12.179688 C 4.640625 12.808594 4.703125 13.691406 4.765625 14.265625 C 1.976562 13.210938 0 10.578125 0 7.5 C 0 3.484375 3.355469 0.234375 7.5 0.234375 C 11.644531 0.234375 15 3.484375 15 7.5 Z M 15 7.5 "/>
</g>
</svg>
